<?xml version="1.0" encoding="UTF-8" standalone="no"?>
<!-- Created with Inkscape (http://www.inkscape.org/) -->

<svg
   xmlns:dc="http://purl.org/dc/elements/1.1/"
   xmlns:cc="http://creativecommons.org/ns#"
   xmlns:rdf="http://www.w3.org/1999/02/22-rdf-syntax-ns#"
   xmlns:svg="http://www.w3.org/2000/svg"
   xmlns="http://www.w3.org/2000/svg"
   xmlns:xlink="http://www.w3.org/1999/xlink"
   xmlns:sodipodi="http://sodipodi.sourceforge.net/DTD/sodipodi-0.dtd"
   xmlns:inkscape="http://www.inkscape.org/namespaces/inkscape"
   version="1.1"
   id="svg2"
   xml:space="preserve"
   width="321.25986"
   height="321.25986"
   viewBox="0 0 321.25986 321.25986"
   sodipodi:docname="fig03_schematic.svg"
   inkscape:version="0.92.3 (2405546, 2018-03-11)"><metadata
     id="metadata8"><rdf:RDF><cc:Work
         rdf:about=""><dc:format>image/svg+xml</dc:format><dc:type
           rdf:resource="http://purl.org/dc/dcmitype/StillImage" /><dc:title></dc:title></cc:Work></rdf:RDF></metadata><defs
     id="defs6"><pattern
       inkscape:collect="always"
       xlink:href="#pattern2890"
       id="pattern2922"
       patternTransform="matrix(0.14914983,-0.09139193,0.39449594,0.64380962,-22.811589,91.497522)" /><pattern
       inkscape:collect="always"
       xlink:href="#pattern2890"
       id="pattern2912"
       patternTransform="matrix(0.20826177,-0.11343366,0.39145619,0.71870517,-22.811589,91.497522)" /><pattern
       inkscape:collect="always"
       xlink:href="#pattern2890"
       id="pattern2910"
       patternTransform="matrix(-0.18752876,0.10155565,-0.3547411,-0.65505127,-22.811589,91.497522)" /><pattern
       inkscape:collect="always"
       xlink:href="#pattern2890"
       id="pattern2897"
       patternTransform="matrix(0.75000002,0,0,0.75000002,-18.311589,91.497522)" /><pattern
       patternUnits="userSpaceOnUse"
       width="19.972501"
       height="50.427628"
       patternTransform="matrix(0.75000002,0,0,0.75000002,-22.811589,91.497522)"
       id="pattern2890"><path
         inkscape:connector-curvature="0"
         id="path2888"
         d="M 0.46749875,0.17732712 19.184969,49.523383 v 0 l 0.340317,0.68064"
         style="fill:none;stroke:#000000;stroke-width:1px;stroke-linecap:butt;stroke-linejoin:miter;stroke-opacity:1" /></pattern><pattern
       patternUnits="userSpaceOnUse"
       width="25.9725"
       height="50.427626"
       patternTransform="matrix(0.75000002,0,0,0.75000002,-22.811588,91.49752)"
       id="pattern2903"><g
         id="g2901"
         transform="matrix(1.3333333,0,0,1.3333333,30.41545,-121.99669)"><rect
           style="fill:url(#pattern2890);stroke:none"
           width="14.979376"
           height="37.820721"
           x="-22.811588"
           y="91.49752"
           id="rect2893" /><rect
           id="rect2895"
           y="91.49752"
           x="-18.311588"
           height="37.820721"
           width="14.979376"
           style="fill:url(#pattern2897);stroke:none" /></g></pattern></defs><sodipodi:namedview
     pagecolor="#ffffff"
     bordercolor="#666666"
     borderopacity="1"
     objecttolerance="10"
     gridtolerance="10"
     guidetolerance="10"
     inkscape:pageopacity="0"
     inkscape:pageshadow="2"
     inkscape:window-width="1920"
     inkscape:window-height="1025"
     id="namedview4"
     showgrid="false"
     showguides="true"
     inkscape:guide-bbox="true"
     inkscape:zoom="2.6271567"
     inkscape:cx="160.62993"
     inkscape:cy="160.62993"
     inkscape:window-x="0"
     inkscape:window-y="27"
     inkscape:window-maximized="1"
     inkscape:current-layer="g10"><sodipodi:guide
       position="316.83573,50.70733"
       orientation="1,0"
       id="guide2805"
       inkscape:locked="false" /></sodipodi:namedview><g
     id="g10"
     inkscape:groupmode="layer"
     inkscape:label="fig03_schematic"
     transform="matrix(1.3333333,0,0,1.3333333,0,1.0031497e-5)"><g
       id="g14"><path
         inkscape:connector-curvature="0"
         id="path16"
         style="fill:none;stroke:#000000;stroke-width:1.90726995;stroke-linecap:butt;stroke-linejoin:miter;stroke-miterlimit:4;stroke-dasharray:none;stroke-opacity:1"
         d="M 0.953,1.203 H 239.992 V 239.742 H 0.953 Z" /></g><path
       inkscape:connector-curvature="0"
       id="path18"
       style="fill:#ffffff;fill-opacity:1;fill-rule:nonzero;stroke:none"
       d="M 0.953,1.203 H 239.992 V 239.742 H 0.953 Z" /><path
       d="m 78.43,144.332 c 0,7.457 -6.043,13.5 -13.5,13.5 -7.457,0 -13.504,-6.043 -13.504,-13.5 0,-7.457 6.047,-13.504 13.504,-13.504 7.457,0 13.5,6.047 13.5,13.504 z"
       style="fill:#e3f4d7;fill-opacity:1;fill-rule:nonzero;stroke:none;stroke-opacity:1;stroke-width:0.37500001;stroke-miterlimit:4;stroke-dasharray:none"
       id="path2924"
       inkscape:connector-curvature="0" /><rect
       y="161.63248"
       x="4.0040002"
       height="20.41906"
       width="233.79822"
       id="rect2918"
       style="fill:#e3f4d7;fill-opacity:1;stroke:none;stroke-width:0.37500001;stroke-miterlimit:4;stroke-dasharray:none;stroke-dashoffset:0;stroke-opacity:1" /><rect
       style="fill:url(#pattern2910);fill-opacity:1;stroke:#000000;stroke-width:0.37500001;stroke-miterlimit:4;stroke-dasharray:none;stroke-dashoffset:0;stroke-opacity:1;opacity:0.5"
       id="rect2803"
       width="233.79822"
       height="20.41906"
       x="4.0040002"
       y="161.63248" /><g
       id="g20"><path
         inkscape:connector-curvature="0"
         id="path22"
         style="fill:none;stroke:#4d4d4d;stroke-width:0.42519701;stroke-linecap:butt;stroke-linejoin:miter;stroke-miterlimit:4;stroke-dasharray:none;stroke-opacity:1"
         d="m 48.254,127.328 c 0,0 -9.852,-11.863 -18.246,-27.394 C 24.051,88.906 18.832,76.031 18.398,64.242 15.883,37.352 52.801,19.621 65.074,40.383 c 8.367,12.457 10.321,35.57 9.571,56.082 -0.707,19.387 -3.836,36.449 -6.25,40" /></g><g
       transform="matrix(0.540255,1,-1,0.540255,0,0)"
       id="g24"><path
         inkscape:connector-curvature="0"
         id="path26"
         style="fill:#4d4d4d;fill-opacity:1;fill-rule:evenodd;stroke:#4d4d4d;stroke-width:0.25718901;stroke-linecap:butt;stroke-linejoin:round;stroke-miterlimit:4;stroke-dasharray:none;stroke-opacity:1"
         d="m 93.904,20.22 -4.495,-1.651 4.495,-1.653 c -0.718,0.975 -0.713,2.31 0,3.304 z" /></g><g
       transform="matrix(0.0651664,1,-1,0.0651664,0,0)"
       id="g28"><path
         inkscape:connector-curvature="0"
         id="path30"
         style="fill:#4d4d4d;fill-opacity:1;fill-rule:evenodd;stroke:#4d4d4d;stroke-width:0.291704;stroke-linecap:butt;stroke-linejoin:round;stroke-miterlimit:4;stroke-dasharray:none;stroke-opacity:1"
         d="m 69.702,-12.266 -5.101,-1.876 5.099,-1.874 c -0.814,1.107 -0.807,2.619 0.002,3.75 z" /></g><g
       transform="matrix(-0.630668,-1,1,-0.630668,0,0)"
       id="g32"><path
         inkscape:connector-curvature="0"
         id="path34"
         style="fill:#4d4d4d;fill-opacity:1;fill-rule:evenodd;stroke:#4d4d4d;stroke-width:0.24725699;stroke-linecap:butt;stroke-linejoin:round;stroke-miterlimit:4;stroke-dasharray:none;stroke-opacity:1"
         d="m -54.409,29.932 -4.322,-1.589 4.323,-1.59 c -0.693,0.938 -0.687,2.223 -10e-4,3.179 z" /></g><g
       transform="matrix(0.0365996,-1,1,0.0365996,0,0)"
       id="g36"><path
         inkscape:connector-curvature="0"
         id="path38"
         style="fill:#4d4d4d;fill-opacity:1;fill-rule:evenodd;stroke:#4d4d4d;stroke-width:0.29212701;stroke-linecap:butt;stroke-linejoin:round;stroke-miterlimit:4;stroke-dasharray:none;stroke-opacity:1"
         d="m -89.066,79.955 -5.108,-1.875 5.107,-1.879 c -0.814,1.108 -0.81,2.628 10e-4,3.754 z" /></g><path
       inkscape:connector-curvature="0"
       id="path40"
       style="fill:url(#pattern2912);fill-opacity:1;fill-rule:nonzero;stroke:#000000;stroke-opacity:1;stroke-width:0.37500001;stroke-miterlimit:4;stroke-dasharray:none;opacity:0.5"
       d="m 78.43,144.332 c 0,7.457 -6.043,13.5 -13.5,13.5 -7.457,0 -13.504,-6.043 -13.504,-13.5 0,-7.457 6.047,-13.504 13.504,-13.504 7.457,0 13.5,6.047 13.5,13.504 z" /><g
       id="g42"><path
         inkscape:connector-curvature="0"
         id="path44"
         style="fill:#a6cee3;fill-opacity:1;fill-rule:nonzero;stroke:#000000;stroke-width:0.75;stroke-linecap:butt;stroke-linejoin:miter;stroke-miterlimit:4;stroke-dasharray:none;stroke-opacity:1"
         d="m 69.164,144.332 c 0,2.336 -1.898,4.234 -4.234,4.234 -2.34,0 -4.239,-1.898 -4.239,-4.234 0,-2.34 1.899,-4.238 4.239,-4.238 2.336,0 4.234,1.898 4.234,4.238 z" /></g><g
       id="g46"><path
         inkscape:connector-curvature="0"
         id="path48"
         style="fill:none;stroke:#000000;stroke-width:0.56409401;stroke-linecap:butt;stroke-linejoin:miter;stroke-miterlimit:4;stroke-dasharray:none;stroke-opacity:1"
         d="m 48.254,127.328 c 0,0 -58.418,-70.348 -11.902,-92.683 51.21,-24.59 38.82,91.859 32.043,101.82" /></g><g
       transform="matrix(-0.830394,-1,1,-0.830394,0,0)"
       id="g50"><path
         inkscape:connector-curvature="0"
         id="path52"
         style="fill:#1b9e77;fill-opacity:1;fill-rule:evenodd;stroke:#000000;stroke-width:0.462908;stroke-linecap:butt;stroke-linejoin:miter;stroke-miterlimit:4;stroke-dasharray:none;stroke-opacity:1"
         d="m -101.508,-36.475 -2.455,2.453 2.455,2.457 2.455,-2.457 z" /></g><g
       transform="matrix(1,-0.480162,0.480162,1,0,0)"
       id="g54"><path
         inkscape:connector-curvature="0"
         id="path56"
         style="fill:#7570b3;fill-opacity:1;fill-rule:evenodd;stroke:#000000;stroke-width:0.542413;stroke-linecap:butt;stroke-linejoin:miter;stroke-miterlimit:4;stroke-dasharray:none;stroke-opacity:1"
         d="m 15.93,42.336 -3.521,2.036 10e-4,-4.069 z" /></g><g
       transform="matrix(-0.68068,1,-1,-0.68068,0,0)"
       id="g58"><path
         inkscape:connector-curvature="0"
         id="path60"
         style="fill:#d95f02;fill-opacity:1;fill-rule:evenodd;stroke:#000000;stroke-width:0.49740499;stroke-linecap:butt;stroke-linejoin:miter;stroke-miterlimit:4;stroke-dasharray:none;stroke-opacity:1"
         d="m 63.271,-110.216 c -0.002,1.029 -0.837,1.863 -1.867,1.865 -1.027,0 -1.866,-0.836 -1.863,-1.865 -0.002,-1.03 0.835,-1.865 1.863,-1.865 1.03,-0.002 1.865,0.835 1.867,1.865 z" /></g><g
       id="g62"><path
         inkscape:connector-curvature="0"
         id="path64"
         style="fill:none;stroke:#000000;stroke-width:0.508219;stroke-linecap:butt;stroke-linejoin:miter;stroke-miterlimit:4;stroke-dasharray:0.508219, 0.508219;stroke-dashoffset:0;stroke-opacity:1"
         d="m 33.652,22.953 84.465,0.707" /></g><g
       transform="matrix(1,0.00835692,-0.00835692,1,0,0)"
       id="g66"><path
         inkscape:connector-curvature="0"
         id="path68"
         style="fill:none;stroke:#000000;stroke-width:0.54208201;stroke-linecap:butt;stroke-linejoin:miter;stroke-miterlimit:4;stroke-dasharray:none;stroke-opacity:1"
         d="m 33.841,24.967 10e-4,-4.594" /></g><g
       transform="matrix(1,0.00835692,-0.00835692,1,0,0)"
       id="g70"><path
         inkscape:connector-curvature="0"
         id="path72"
         style="fill:none;stroke:#000000;stroke-width:0.54208201;stroke-linecap:butt;stroke-linejoin:miter;stroke-miterlimit:4;stroke-dasharray:none;stroke-opacity:1"
         d="m 118.31,24.968 -0.003,-4.593" /></g><path
       inkscape:connector-curvature="0"
       id="path78"
       style="fill:#a6cee3;fill-opacity:1;fill-rule:nonzero;stroke:none;stroke-width:1.00201118"
       d="M 4.2137618,167.254 H 237.6268 v 9.176 H 4.2137618 Z" /><g
       id="g80"><path
         inkscape:connector-curvature="0"
         id="path82"
         style="fill:none;stroke:#000000;stroke-width:0.46771699;stroke-linecap:butt;stroke-linejoin:miter;stroke-miterlimit:4;stroke-dasharray:3.741732, 3.741732;stroke-dashoffset:0;stroke-opacity:1"
         d="m 112.066,163.391 17.817,15.437 14.824,-12.941 26.117,-1.649 7.531,-25.109" /></g><g
       transform="matrix(1,-0.00193605,0.00193605,1,0,0)"
       id="g84"><path
         inkscape:connector-curvature="0"
         id="path86"
         style="fill:#000000;fill-opacity:1;fill-rule:evenodd;stroke:#000000;stroke-width:0.49889699;stroke-linecap:butt;stroke-linejoin:miter;stroke-miterlimit:4;stroke-dasharray:none;stroke-opacity:1"
         d="m 127.669,177.208 -0.004,3.738 3.742,0.004 v -3.742 z" /></g><g
       transform="matrix(1,-0.411455,0.411455,1,0,0)"
       id="g88"><path
         inkscape:connector-curvature="0"
         id="path90"
         style="fill:#000000;fill-opacity:1;fill-rule:evenodd;stroke:#000000;stroke-width:0.46136999;stroke-linecap:butt;stroke-linejoin:miter;stroke-miterlimit:4;stroke-dasharray:none;stroke-opacity:1"
         d="m 63.654,191.058 10e-4,3.461 3.459,-0.002 10e-4,-3.461 z" /></g><g
       transform="matrix(1,-0.79419,0.79419,1,0,0)"
       id="g92"><path
         inkscape:connector-curvature="0"
         id="path94"
         style="fill:#000000;fill-opacity:1;fill-rule:evenodd;stroke:#000000;stroke-width:0.39067799;stroke-linecap:butt;stroke-linejoin:miter;stroke-miterlimit:4;stroke-dasharray:none;stroke-opacity:1"
         d="m 23.303,182.445 -0.001,2.928 2.93,-10e-4 0.002,-2.928 z" /></g><g
       id="g96"><path
         inkscape:connector-curvature="0"
         id="path98"
         style="fill:none;stroke:#000000;stroke-width:0.56409401;stroke-linecap:butt;stroke-linejoin:miter;stroke-miterlimit:4;stroke-dasharray:none;stroke-opacity:1"
         d="m 178.355,139.129 c -11.058,-27.66 -21.097,-39.172 -13.871,-66.297 3.661,-13.727 16.883,-34.184 30.524,-35.23 22.297,-1.711 42.125,65.832 27.703,124.851" /></g><g
       transform="matrix(-0.399798,-1,1,-0.399798,0,0)"
       id="g100"><path
         inkscape:connector-curvature="0"
         id="path102"
         style="fill:#1b9e77;fill-opacity:1;fill-rule:evenodd;stroke:#000000;stroke-width:0.55870402;stroke-linecap:butt;stroke-linejoin:miter;stroke-miterlimit:4;stroke-dasharray:none;stroke-opacity:1"
         d="m -184.368,102.856 -2.966,2.963 2.964,2.963 2.963,-2.964 z" /></g><g
       transform="matrix(0.266483,-1,1,0.266483,0,0)"
       id="g104"><path
         inkscape:connector-curvature="0"
         id="path106"
         style="fill:#000000;fill-opacity:1;fill-rule:evenodd;stroke:#000000;stroke-width:0.290705;stroke-linecap:butt;stroke-linejoin:miter;stroke-miterlimit:4;stroke-dasharray:none;stroke-opacity:1"
         d="m -28.168,170.612 -0.001,2.18 2.18,0.001 0.001,-2.18 z" /></g><g
       transform="matrix(1,-0.0767778,0.0767778,1,0,0)"
       id="g108"><path
         inkscape:connector-curvature="0"
         id="path110"
         style="fill:#000000;fill-opacity:1;fill-rule:evenodd;stroke:#000000;stroke-width:0.299968;stroke-linecap:butt;stroke-linejoin:miter;stroke-miterlimit:4;stroke-dasharray:none;stroke-opacity:1"
         d="m 186.847,51.65 -0.001,2.25 2.246,0.001 0.005,-2.25 z" /></g><g
       transform="matrix(-0.244398,1,-1,-0.244398,0,0)"
       id="g112"><path
         inkscape:connector-curvature="0"
         id="path114"
         style="fill:#d95f02;fill-opacity:1;fill-rule:evenodd;stroke:#000000;stroke-width:0.58449799;stroke-linecap:butt;stroke-linejoin:miter;stroke-miterlimit:4;stroke-dasharray:none;stroke-opacity:1"
         d="m 104.08,-247.62 c 0.003,1.21 -0.98,2.192 -2.191,2.191 -1.211,-0.001 -2.19,-0.984 -2.192,-2.191 10e-4,-1.211 0.984,-2.193 2.191,-2.191 1.21,-0.003 2.193,0.979 2.192,2.191 z" /></g><g
       id="g116"><path
         inkscape:connector-curvature="0"
         id="path118"
         style="fill:none;stroke:#000000;stroke-width:0.508219;stroke-linecap:butt;stroke-linejoin:miter;stroke-miterlimit:4;stroke-dasharray:0.508219, 0.508219;stroke-dashoffset:0;stroke-opacity:1"
         d="M 192.184,170.746 192.066,41.117" /></g><g
       transform="rotate(-90.051714)"
       id="g120"><path
         inkscape:connector-curvature="0"
         id="path122"
         style="fill:none;stroke:#000000;stroke-width:0.54210001;stroke-linecap:butt;stroke-linejoin:miter;stroke-miterlimit:4;stroke-dasharray:none;stroke-opacity:1"
         d="m -170.918,194.326 -0.003,-4.594" /></g><g
       transform="rotate(-90.051714)"
       id="g124"><path
         inkscape:connector-curvature="0"
         id="path126"
         style="fill:none;stroke:#000000;stroke-width:0.54210001;stroke-linecap:butt;stroke-linejoin:miter;stroke-miterlimit:4;stroke-dasharray:none;stroke-opacity:1"
         d="m -41.289,194.33 -0.003,-4.598" /></g><g
       id="g128"><path
         inkscape:connector-curvature="0"
         id="path130"
         style="fill:none;stroke:#000000;stroke-width:0.508219;stroke-linecap:butt;stroke-linejoin:miter;stroke-miterlimit:4;stroke-dasharray:0.508219, 0.508219;stroke-dashoffset:0;stroke-opacity:1"
         d="M 158.887,67.543 186.164,31.562" /></g><g
       transform="matrix(0.758132,-1,1,0.758132,0,0)"
       id="g132"><path
         inkscape:connector-curvature="0"
         id="path134"
         style="fill:none;stroke:#000000;stroke-width:0.431988;stroke-linecap:butt;stroke-linejoin:miter;stroke-miterlimit:4;stroke-dasharray:none;stroke-opacity:1"
         d="M 33.603,135.243 33.6,131.582" /></g><g
       transform="matrix(0.758132,-1,1,0.758132,0,0)"
       id="g136"><path
         inkscape:connector-curvature="0"
         id="path138"
         style="fill:none;stroke:#000000;stroke-width:0.431988;stroke-linecap:butt;stroke-linejoin:miter;stroke-miterlimit:4;stroke-dasharray:none;stroke-opacity:1"
         d="m 69.579,135.242 0.001,-3.661" /></g><g
       id="g140"><path
         inkscape:connector-curvature="0"
         id="path142"
         style="fill:none;stroke:#000000;stroke-width:0.81380802;stroke-linecap:butt;stroke-linejoin:miter;stroke-miterlimit:4;stroke-dasharray:none;stroke-opacity:1"
         d="M 4.656,183.891 H 237.59 v 44.566 H 4.656 Z" /></g><path
       inkscape:connector-curvature="0"
       id="path144"
       style="fill:#ffffff;fill-opacity:1;fill-rule:nonzero;stroke:none"
       d="M 4.656,183.891 H 237.59 v 44.566 H 4.656 Z" /><g
       id="g146"><path
         inkscape:connector-curvature="0"
         id="path148"
         style="fill:none;stroke:#000000;stroke-width:0.508219;stroke-linecap:butt;stroke-linejoin:miter;stroke-miterlimit:4;stroke-dasharray:1.016439, 2.032877;stroke-dashoffset:0;stroke-opacity:1"
         d="m 44.473,135.184 c 0,0 -59.032,-79.86 -17.481,-101.848 76.039,-40.242 47.426,94.73 47.426,101.082" /></g><g
       transform="matrix(-0.739187,-1,1,-0.739187,0,0)"
       id="g150"><path
         inkscape:connector-curvature="0"
         id="path152"
         style="fill:none;stroke:#000000;stroke-width:0.43593299;stroke-linecap:butt;stroke-linejoin:miter;stroke-miterlimit:4;stroke-dasharray:none;stroke-opacity:1"
         d="m -108.678,-34.013 -0.001,-3.692" /></g><g
       transform="rotate(90)"
       id="g154"><path
         inkscape:connector-curvature="0"
         id="path156"
         style="fill:none;stroke:#000000;stroke-width:0.54210103;stroke-linecap:butt;stroke-linejoin:miter;stroke-miterlimit:4;stroke-dasharray:none;stroke-opacity:1"
         d="m 134.418,-72.121 v -4.594" /></g><text
       id="text182"
       style="font-style:italic;font-variant:normal;font-size:8px;font-family:Arial;-inkscape-font-specification:Arial-ItalicMT;writing-mode:lr-tb;fill:#000000;fill-opacity:1;fill-rule:nonzero;stroke:none"
       x="13.149476"
       y="30.997757"><tspan
         id="tspan158"
         y="30.997757"
         x="13.149476">d</tspan><tspan
         id="tspan160"
         sodipodi:role="line"
         y="32.597755"
         x="17.602604 19.378603">ij</tspan><tspan
         id="tspan162"
         sodipodi:role="line"
         y="80.3582"
         x="168.85428 173.30228">pt</tspan><tspan
         id="tspan164"
         y="81.958199"
         x="175.52615">x</tspan><tspan
         id="tspan166"
         sodipodi:role="line"
         y="31.692589"
         x="197.95938 202.40739">pt</tspan><tspan
         id="tspan168"
         sodipodi:role="line"
         y="33.292587"
         x="204.63126 208.63126 213.29526">x+1</tspan><tspan
         id="tspan170"
         sodipodi:role="line"
         y="48.665749"
         x="110.82513 115.27312">pt</tspan><tspan
         id="tspan172"
         sodipodi:role="line"
         y="50.265751"
         x="117.49698 124.16099 125.93699">mid</tspan><tspan
         id="tspan174"
         sodipodi:role="line"
         y="88.012085"
         x="39.586803 43.586803 48.034801">seg</tspan><tspan
         id="tspan176"
         sodipodi:role="line"
         y="89.612083"
         x="52.49305 54.269051">ij</tspan><tspan
         id="tspan178"
         sodipodi:role="line"
         y="96.186859"
         x="102.19272 106.19272 110.64072">seg</tspan><tspan
         id="tspan180"
         sodipodi:role="line"
         y="97.786858"
         x="115.09894 116.87493 118.65093 123.31493">ij+1</tspan></text>
<text
       id="text186"
       style="font-variant:normal;font-weight:normal;font-size:7.90563393px;font-family:Arial;-inkscape-font-specification:ArialMT;writing-mode:lr-tb;fill:#000000;fill-opacity:1;fill-rule:nonzero;stroke:none"
       x="31.267567"
       y="194.79579"><tspan
         id="tspan184"
         sodipodi:role="line"
         y="194.79579"
         x="31.267567 36.975433 38.730484 42.683304 47.078835">River</tspan></text>
<path
       inkscape:connector-curvature="0"
       id="path188"
       style="fill:#a6cee3;fill-opacity:1;fill-rule:nonzero;stroke:none"
       d="m 7.777,189.926 h 18.898 v 4.359 H 7.777 Z" /><g
       id="g190"><path
         inkscape:connector-curvature="0"
         id="path192"
         style="fill:#a6cee3;fill-opacity:1;fill-rule:nonzero;stroke:#000000;stroke-width:0.88218403;stroke-linecap:round;stroke-linejoin:miter;stroke-miterlimit:4;stroke-dasharray:none;stroke-opacity:1"
         d="m 21.461,205.254 c 0,2.34 -1.895,4.238 -4.234,4.238 -2.34,0 -4.235,-1.898 -4.235,-4.238 0,-2.336 1.895,-4.234 4.235,-4.234 2.339,0 4.234,1.898 4.234,4.234 z" /></g><text
       id="text196"
       style="font-variant:normal;font-weight:normal;font-size:7.90563393px;font-family:Arial;-inkscape-font-specification:ArialMT;writing-mode:lr-tb;fill:#000000;fill-opacity:1;fill-rule:nonzero;stroke:none"
       x="30.635248"
       y="207.94008"><tspan
         id="tspan194"
         sodipodi:role="line"
         y="207.94008"
         x="30.635248 37.774036 42.169567 44.359428 48.754959 51.387535 55.78307 60.1786 61.933651">Waterhole</tspan></text>
<path
       inkscape:connector-curvature="0"
       id="path198"
       style="fill:#e3f4d7;fill-opacity:1;fill-rule:nonzero;stroke:none"
       d="m 7.777,215.336 h 18.898 v 7.707 H 7.777 Z" /><text
       id="text202"
       style="font-variant:normal;font-weight:normal;font-size:7.90563393px;font-family:Arial;-inkscape-font-specification:ArialMT;writing-mode:lr-tb;fill:#000000;fill-opacity:1;fill-rule:nonzero;stroke:none"
       x="30.635248"
       y="221.49257"><tspan
         id="tspan200"
         sodipodi:role="line"
         y="221.49257"
         x="30.635248 35.030781 39.426311 43.821846 50.407238 52.597099 56.99263 61.388165 63.41991 65.609772 70.005302">200m buffer</tspan></text>
<g
       id="g204"><path
         inkscape:connector-curvature="0"
         id="path206"
         style="fill:#d95f02;fill-opacity:1;fill-rule:nonzero;stroke:#000000;stroke-width:0.75;stroke-linecap:butt;stroke-linejoin:miter;stroke-miterlimit:4;stroke-dasharray:none;stroke-opacity:1"
         d="m 162.629,206.719 c 0,1.879 -1.524,3.406 -3.406,3.406 -1.883,0 -3.407,-1.527 -3.407,-3.406 0,-1.883 1.524,-3.407 3.407,-3.407 1.882,0 3.406,1.524 3.406,3.407 z" /></g><g
       id="g208"><path
         inkscape:connector-curvature="0"
         id="path210"
         style="fill:#1b9e77;fill-opacity:1;fill-rule:nonzero;stroke:#000000;stroke-width:0.75;stroke-linecap:butt;stroke-linejoin:miter;stroke-miterlimit:4;stroke-dasharray:none;stroke-opacity:1"
         d="m 155.168,193.566 4.055,-4.05 4.054,4.05 -4.054,4.055 z" /></g><g
       transform="matrix(1,0.583955,-0.583955,1,0,0)"
       id="g212"><path
         inkscape:connector-curvature="0"
         id="path214"
         style="fill:#7570b3;fill-opacity:1;fill-rule:nonzero;stroke:#000000;stroke-width:0.647659;stroke-linecap:butt;stroke-linejoin:miter;stroke-miterlimit:4;stroke-dasharray:none;stroke-opacity:1"
         d="m 214.338,97.473 -1.586,-2.742 -1.582,-2.744 3.167,-10e-4 3.168,10e-4 -1.586,2.742 z" /></g><text
       id="text222"
       style="font-variant:normal;font-weight:normal;font-size:7.90563393px;font-family:Arial;-inkscape-font-specification:ArialMT;writing-mode:lr-tb;fill:#000000;fill-opacity:1;fill-rule:nonzero;stroke:none"
       x="172.09126"
       y="208.60957"><tspan
         id="tspan216"
         sodipodi:role="line"
         y="208.60957"
         x="172.09126 177.35641 181.75194 186.14748 192.73286 197.1284 201.52394 203.71379 205.85622 210.25175 214.64729">Segment end</tspan><tspan
         id="tspan218"
         sodipodi:role="line"
         y="195.39192"
         x="172.09126 177.35641 181.75194 186.14748 192.73286 197.1284 201.52394 203.71379 205.85622 209.80904 211.9989 216.39444 219.02701">Segment start</tspan><tspan
         id="tspan220"
         sodipodi:role="line"
         y="220.85553"
         x="172.09126 177.35641 181.75194 186.14748 192.73286 197.1284 201.52394 203.71379 205.85622 212.44162 214.19667 218.59219 222.98773 227.38327 229.13832 233.53384">Segment midpoint</tspan></text>
<path
       inkscape:connector-curvature="0"
       id="path224"
       style="fill:#000000;fill-opacity:1;fill-rule:nonzero;stroke:none"
       d="m 76.25,190.855 h 4.234 v 4.234 H 76.25 Z" /><text
       id="text228"
       style="font-variant:normal;font-weight:normal;font-size:7.90563393px;font-family:Arial;-inkscape-font-specification:ArialMT;writing-mode:lr-tb;fill:#000000;fill-opacity:1;fill-rule:nonzero;stroke:none"
       x="88.745422"
       y="194.79581"><tspan
         id="tspan226"
         sodipodi:role="line"
         y="194.79581"
         x="88.745422 94.010582 98.406113 102.35892 104.11398 106.30384 108.05889 112.45442 116.80252 120.75533 122.9452 127.34073 129.53059 131.72044 137.42831 141.7527 143.94257 148.33809">Positions at water</tspan></text>
<g
       id="g230"><path
         inkscape:connector-curvature="0"
         id="path232"
         style="fill:none;stroke:#000000;stroke-width:0.84703201;stroke-linecap:butt;stroke-linejoin:miter;stroke-miterlimit:4;stroke-dasharray:none;stroke-opacity:1"
         d="m 72.012,206.121 c 12.707,0 12.707,0 12.707,0" /></g><text
       id="text236"
       style="font-variant:normal;font-weight:normal;font-size:7.90563393px;font-family:Arial;-inkscape-font-specification:ArialMT;writing-mode:lr-tb;fill:#000000;fill-opacity:1;fill-rule:nonzero;stroke:none"
       x="88.745422"
       y="208.02116"><tspan
         id="tspan234"
         sodipodi:role="line"
         y="208.02116"
         x="88.745422 93.259544 95.89212 100.31137 104.26418 108.217 110.40686 114.35968 118.75521 123.15074 129.73613 134.13167 138.52721">Track segment</tspan></text>
<text
       id="text242"
       style="font-style:italic;font-variant:normal;font-size:8px;font-family:Arial;-inkscape-font-specification:Arial-ItalicMT;writing-mode:lr-tb;fill:#000000;fill-opacity:1;fill-rule:nonzero;stroke:none"
       x="27.783955"
       y="174.65694"><tspan
         id="tspan238"
         sodipodi:role="line"
         y="174.65694"
         x="27.783955 33.559956 35.335957 39.335957 43.783955">River</tspan><tspan
         id="tspan240"
         sodipodi:role="line"
         y="155.46957"
         x="62.107571 69.49157 73.939575 76.155571 80.603569 83.26757 87.715576 92.163574 93.939575">Waterhole</tspan></text>
<g
       id="g244"><path
         inkscape:connector-curvature="0"
         id="path246"
         style="fill:none;stroke:#000000;stroke-width:0.56409401;stroke-linecap:butt;stroke-linejoin:miter;stroke-miterlimit:4;stroke-dasharray:none;stroke-opacity:1"
         d="m 79.629,125.484 c 6.664,-12.839 8.891,-93.41 40.949,-92.879 51.543,0.852 -8.512,130.786 -8.512,130.786" /></g><g
       transform="matrix(0.51886,-1,1,0.51886,0,0)"
       id="g248"><path
         inkscape:connector-curvature="0"
         id="path250"
         style="fill:#1b9e77;fill-opacity:1;fill-rule:evenodd;stroke:#000000;stroke-width:0.53408802;stroke-linecap:butt;stroke-linejoin:miter;stroke-miterlimit:4;stroke-dasharray:none;stroke-opacity:1"
         d="m -69.116,111.205 -2.835,2.834 2.833,2.832 2.831,-2.833 z" /></g><g
       transform="matrix(1,0.0165493,-0.0165493,1,0,0)"
       id="g252"><path
         inkscape:connector-curvature="0"
         id="path254"
         style="fill:#7570b3;fill-opacity:1;fill-rule:evenodd;stroke:#000000;stroke-width:0.60161799;stroke-linecap:butt;stroke-linejoin:miter;stroke-miterlimit:4;stroke-dasharray:none;stroke-opacity:1"
         d="m 120.983,30.599 -3.904,2.256 -10e-4,-4.511 z" /></g><g
       transform="matrix(-0.462185,1,-1,-0.462185,0,0)"
       id="g256"><path
         inkscape:connector-curvature="0"
         id="path258"
         style="fill:#d95f02;fill-opacity:1;fill-rule:evenodd;stroke:#000000;stroke-width:0.54618502;stroke-linecap:butt;stroke-linejoin:miter;stroke-miterlimit:4;stroke-dasharray:none;stroke-opacity:1"
         d="m 93.961,-154.564 c -0.001,1.129 -0.918,2.045 -2.046,2.047 -1.133,0 -2.05,-0.92 -2.048,-2.049 -0.004,-1.131 0.916,-2.049 2.046,-2.047 1.132,-0.001 2.048,0.916 2.048,2.049 z" /></g><g
       id="g260"><path
         inkscape:connector-curvature="0"
         id="path262"
         style="fill:none;stroke:#000000;stroke-width:0.508219;stroke-linecap:butt;stroke-linejoin:miter;stroke-miterlimit:4;stroke-dasharray:0.508219, 0.508219;stroke-dashoffset:0;stroke-opacity:1"
         d="m 82.656,132.711 26.782,25.465" /></g><g
       transform="matrix(1,0.950815,-0.950815,1,0,0)"
       id="g264"><path
         inkscape:connector-curvature="0"
         id="path266"
         style="fill:none;stroke:#000000;stroke-width:0.39286301;stroke-linecap:butt;stroke-linejoin:miter;stroke-miterlimit:4;stroke-dasharray:none;stroke-opacity:1"
         d="M 109.682,30.088 V 26.76" /></g><g
       transform="matrix(1,0.950815,-0.950815,1,0,0)"
       id="g268"><path
         inkscape:connector-curvature="0"
         id="path270"
         style="fill:none;stroke:#000000;stroke-width:0.39286301;stroke-linecap:butt;stroke-linejoin:miter;stroke-miterlimit:4;stroke-dasharray:none;stroke-opacity:1"
         d="m 136.462,30.09 0.002,-3.33" /></g><text
       id="text274"
       style="font-style:italic;font-variant:normal;font-size:8px;font-family:Arial;-inkscape-font-specification:Arial-ItalicMT;writing-mode:lr-tb;fill:#000000;fill-opacity:1;fill-rule:nonzero;stroke:none"
       x="138.21028"
       y="160.33469"><tspan
         id="tspan272"
         sodipodi:role="line"
         y="160.33469"
         x="138.21028 142.65828">pt</tspan></text>
<text
       id="text278"
       style="font-style:italic;font-variant:normal;font-size:5.19999981px;font-family:Arial;-inkscape-font-specification:Arial-ItalicMT;writing-mode:lr-tb;fill:#000000;fill-opacity:1;fill-rule:nonzero;stroke:none"
       x="144.88216"
       y="161.93468"><tspan
         id="tspan276"
         y="161.93468"
         x="144.88216">w</tspan></text>
<g
       id="g280"><path
         inkscape:connector-curvature="0"
         id="path282"
         style="fill:none;stroke:#000000;stroke-width:0.48178101;stroke-linecap:butt;stroke-linejoin:miter;stroke-miterlimit:4;stroke-dasharray:0.481781, 0.481781;stroke-dashoffset:0;stroke-opacity:1"
         d="M 211.688,170.723 211.566,57.219" /></g><g
       transform="matrix(-0.00105795,-1,1,-0.00105795,0,0)"
       id="g284"><path
         inkscape:connector-curvature="0"
         id="path286"
         style="fill:none;stroke:#000000;stroke-width:0.51389998;stroke-linecap:butt;stroke-linejoin:miter;stroke-miterlimit:4;stroke-dasharray:none;stroke-opacity:1"
         d="m -170.945,213.682 -0.003,-4.355" /></g><g
       transform="matrix(-0.00105795,-1,1,-0.00105795,0,0)"
       id="g288"><path
         inkscape:connector-curvature="0"
         id="path290"
         style="fill:none;stroke:#000000;stroke-width:0.51389998;stroke-linecap:butt;stroke-linejoin:miter;stroke-miterlimit:4;stroke-dasharray:none;stroke-opacity:1"
         d="m -57.445,213.685 10e-4,-4.355" /></g><text
       id="text296"
       style="font-style:italic;font-variant:normal;font-size:8px;font-family:Arial;-inkscape-font-specification:Arial-ItalicMT;writing-mode:lr-tb;fill:#000000;fill-opacity:1;fill-rule:nonzero;stroke:none"
       x="217.81439"
       y="53.759079"><tspan
         id="tspan292"
         sodipodi:role="line"
         y="53.759079"
         x="217.81439 222.26239">pt</tspan><tspan
         id="tspan294"
         sodipodi:role="line"
         y="55.359081"
         x="224.48627 228.48627 233.15027">x+2</tspan></text>
<g
       transform="matrix(1,-0.0767778,0.0767778,1,0,0)"
       id="g298"><path
         inkscape:connector-curvature="0"
         id="path300"
         style="fill:#000000;fill-opacity:1;fill-rule:evenodd;stroke:#000000;stroke-width:0.299968;stroke-linecap:butt;stroke-linejoin:miter;stroke-miterlimit:4;stroke-dasharray:none;stroke-opacity:1"
         d="m 208.095,69.688 -0.001,2.25 2.25,10e-4 0.001,-2.25 z" /></g><text
       id="text318"
       style="font-style:italic;font-variant:normal;font-size:8px;font-family:Arial;-inkscape-font-specification:Arial-ItalicMT;writing-mode:lr-tb;fill:#000000;fill-opacity:1;fill-rule:nonzero;stroke:none"
       x="65.334007"
       y="18.231733"><tspan
         id="tspan302"
         sodipodi:role="line"
         y="18.231733"
         x="65.334007 69.782005 76.446007 78.222">dmid</tspan><tspan
         id="tspan304"
         sodipodi:role="line"
         y="143.12437"
         x="35.735165 40.183163 42.399166">pt0</tspan><tspan
         id="tspan306"
         y="48.011055"
         x="164.23744">v</tspan><tspan
         id="tspan308"
         sodipodi:role="line"
         y="103.11626"
         x="175.15628 179.60428">dw</tspan><tspan
         id="tspan310"
         y="104.71626"
         x="185.39067">1</tspan><tspan
         id="tspan312"
         sodipodi:role="line"
         y="114.60198"
         x="194.8725 199.3205">dw</tspan><tspan
         id="tspan314"
         y="116.20198"
         x="205.10687">2</tspan><tspan
         id="tspan316"
         y="143.19244"
         x="96.990532">D</tspan></text>
<path
       d="m 7.777,215.336 h 18.898 v 7.707 H 7.777 Z"
       style="fill:url(#pattern2922);fill-opacity:1;fill-rule:nonzero;stroke:none"
       id="path2920"
       inkscape:connector-curvature="0" /></g></svg>